<svg width="156" height="48" viewBox="0 0 156 48" fill="none" xmlns="http://www.w3.org/2000/svg">
<rect x="0.5" y="0.5" width="155" height="47" rx="23.5" stroke="#DFF9E6"/>
<path d="M39.8984 30.1953C36.6562 30.1953 34.6094 27.9609 34.6094 24.3594V24.3516C34.6094 20.75 36.6641 18.5312 39.8984 18.5312C42.4922 18.5312 44.3984 20.1484 44.6953 22.4453L44.7031 22.5234H42.7266L42.6875 22.375C42.3594 21.0859 41.3672 20.2812 39.8984 20.2812C37.9297 20.2812 36.6719 21.8516 36.6719 24.3516V24.3594C36.6719 26.8672 37.9375 28.4453 39.8984 28.4453C41.3359 28.4453 42.3438 27.6719 42.7109 26.2812L42.7344 26.2031H44.7109L44.6953 26.2812C44.4062 28.5938 42.4922 30.1953 39.8984 30.1953ZM45.7816 30V18.7266H47.7269V30H45.7816ZM50.0944 20.5312C49.485 20.5312 49.0084 20.0469 49.0084 19.4688C49.0084 18.875 49.485 18.3984 50.0944 18.3984C50.7037 18.3984 51.1725 18.875 51.1725 19.4688C51.1725 20.0469 50.7037 20.5312 50.0944 20.5312ZM49.1178 30V21.7188H51.0631V30H49.1178ZM56.0556 30.1641C53.5947 30.1641 52.0556 28.5078 52.0556 25.8516V25.8438C52.0556 23.2031 53.6181 21.5469 56.0322 21.5469C58.2119 21.5469 59.5713 22.9297 59.6884 24.5859L59.6963 24.6484H57.8603L57.8447 24.5781C57.6806 23.7734 57.0869 23.125 56.0556 23.125C54.8291 23.125 54.04 24.1641 54.04 25.8594V25.8672C54.04 27.5938 54.8369 28.5938 56.0634 28.5938C57.0478 28.5938 57.6728 28.0078 57.8525 27.1406L57.8681 27.0703H59.7041L59.6963 27.125C59.5478 28.8516 58.1494 30.1641 56.0556 30.1641ZM60.6341 30V18.7266H62.5794V25.1562H62.6184L65.7122 21.7188H67.9622L64.6809 25.2812L68.095 30H65.8528L63.2356 26.4375L62.5794 27.125V30H60.6341ZM74.4863 30.1641C72.7519 30.1641 71.9316 29.4609 71.9316 27.7578V23.2188H70.7597V21.7188H71.9316V19.6172H73.9081V21.7188H75.4472V23.2188H73.9081V27.5938C73.9081 28.4062 74.2675 28.6641 74.9784 28.6641C75.1659 28.6641 75.3144 28.6406 75.4472 28.6328V30.0938C75.2206 30.125 74.8769 30.1641 74.4863 30.1641ZM79.9709 30.1641C77.5334 30.1641 75.9631 28.5391 75.9631 25.8594V25.8438C75.9631 23.1875 77.5569 21.5469 79.9631 21.5469C82.3772 21.5469 83.9787 23.1719 83.9787 25.8438V25.8594C83.9787 28.5469 82.4006 30.1641 79.9709 30.1641ZM79.9787 28.5938C81.2053 28.5938 81.9944 27.5938 81.9944 25.8594V25.8438C81.9944 24.1172 81.1975 23.125 79.9631 23.125C78.7522 23.125 77.9475 24.125 77.9475 25.8438V25.8594C77.9475 27.6016 78.7366 28.5938 79.9787 28.5938ZM91.9481 30.1953C89.3622 30.1953 87.6591 28.9766 87.5262 26.9531L87.5184 26.8359H89.4481L89.4637 26.9297C89.6122 27.8984 90.6044 28.5 92.0184 28.5C93.4403 28.5 94.3309 27.8672 94.3309 26.8984V26.8906C94.3309 26.0469 93.745 25.5938 92.2919 25.2891L91.0809 25.0391C88.8622 24.5781 87.7684 23.5469 87.7684 21.8672V21.8594C87.7762 19.875 89.5184 18.5312 91.9481 18.5312C94.4091 18.5312 96.0184 19.8281 96.1356 21.7578L96.1434 21.8906H94.2137L94.1981 21.7969C94.0653 20.8125 93.1981 20.2266 91.9325 20.2266C90.6122 20.2344 89.7919 20.8516 89.7919 21.75V21.7578C89.7919 22.5547 90.4091 23.0234 91.7684 23.3047L92.9872 23.5547C95.3309 24.0391 96.3544 24.9922 96.3544 26.75V26.7578C96.3544 28.8594 94.6981 30.1953 91.9481 30.1953ZM101.003 30.1641C98.5422 30.1641 97.0031 28.5078 97.0031 25.8516V25.8438C97.0031 23.2031 98.5656 21.5469 100.98 21.5469C103.159 21.5469 104.519 22.9297 104.636 24.5859L104.644 24.6484H102.808L102.792 24.5781C102.628 23.7734 102.034 23.125 101.003 23.125C99.7766 23.125 98.9875 24.1641 98.9875 25.8594V25.8672C98.9875 27.5938 99.7844 28.5938 101.011 28.5938C101.995 28.5938 102.62 28.0078 102.8 27.1406L102.816 27.0703H104.652L104.644 27.125C104.495 28.8516 103.097 30.1641 101.003 30.1641ZM107.941 30.1406C106.285 30.1406 105.168 29.1172 105.168 27.6406V27.625C105.168 26.1562 106.308 25.2734 108.316 25.1484L110.48 25.0156V24.4453C110.48 23.6094 109.933 23.1016 108.949 23.1016C108.027 23.1016 107.464 23.5312 107.339 24.1406L107.324 24.2109H105.519L105.527 24.1172C105.644 22.6484 106.918 21.5469 109.019 21.5469C111.089 21.5469 112.425 22.6406 112.425 24.3047V30H110.48V28.7266H110.433C109.957 29.5938 109.035 30.1406 107.941 30.1406ZM107.105 27.5625C107.105 28.2422 107.668 28.6562 108.519 28.6562C109.636 28.6562 110.48 27.9141 110.48 26.9297V26.3047L108.589 26.4219C107.628 26.4844 107.105 26.8984 107.105 27.5547V27.5625ZM113.676 30V21.7188H115.621V23.0156H115.66C116.09 22.125 116.933 21.5469 118.191 21.5469C120.012 21.5469 121.051 22.7188 121.051 24.6406V30H119.105V25.0312C119.105 23.8516 118.558 23.1875 117.449 23.1875C116.332 23.1875 115.621 24 115.621 25.1953V30H113.676Z" fill="#F1FCF3"/>
</svg>
