<svg width="76" height="33" viewBox="0 0 76 33" fill="none" xmlns="http://www.w3.org/2000/svg">
<path d="M41.0998 17.4599C41.5354 17.4599 41.7521 17.3505 42.0652 17.0243C42.1199 16.9696 42.2425 16.7791 42.5008 16.7791H43.672C43.8493 16.7791 43.9719 16.9149 43.9719 17.0922C43.9719 17.1732 43.9172 17.2958 43.8909 17.3505C43.3327 18.5479 42.2031 19.093 41.102 19.093C39.401 19.093 38 17.8146 38 15.9079V15.2008C38 13.2963 39.401 12.0156 41.102 12.0156C42.7766 12.0156 44.1361 13.3773 44.1361 15.1461V15.7305C44.1361 15.9626 43.9456 16.153 43.7136 16.153H39.9702V16.234C39.9702 16.9149 40.4606 17.4599 41.0998 17.4599ZM42.2294 14.7652C42.2294 14.0843 41.739 13.6487 41.0998 13.6487C40.4606 13.6487 39.9702 14.0975 39.9702 14.7783V14.8746H42.2294V14.7652Z" fill="#268B43"/>
<path d="M46.2298 21.6803H45.1002C44.8682 21.6803 44.6777 21.4899 44.6777 21.2578V12.5758C44.6777 12.3438 44.8682 12.1533 45.1002 12.1533H46.2298C46.4619 12.1533 46.6523 12.3438 46.6523 12.5758V12.7925C47.0879 12.2759 47.5783 12.0176 48.489 12.0176C50.0257 12.0176 50.8839 13.0924 50.8839 15.2027V15.8157C50.8839 17.9785 49.9579 19.095 48.489 19.095C47.6593 19.095 47.1011 18.9045 46.6523 18.32V21.26C46.6523 21.4899 46.4619 21.6803 46.2298 21.6803ZM47.7819 17.4619C48.6247 17.4619 48.9115 16.8095 48.9115 16.1966V14.9313C48.9115 14.3183 48.6247 13.6528 47.7819 13.6528C46.9391 13.6528 46.6523 14.3205 46.6523 14.9313V16.1966C46.6523 16.8095 46.9369 17.4619 47.7819 17.4619Z" fill="#268B43"/>
<path d="M57.43 12.5748V18.5358C57.43 18.7678 57.2396 18.9583 57.0075 18.9583H55.8779C55.6459 18.9583 55.4554 18.7678 55.4554 18.5358V18.3191C55.0614 18.8094 54.6126 19.094 53.7129 19.094C52.0667 19.094 51.3574 17.8156 51.3574 15.9089V12.5748C51.3574 12.3428 51.5479 12.1523 51.7799 12.1523H52.9095C53.1415 12.1523 53.332 12.3428 53.332 12.5748V16.1956C53.332 17.0122 53.8092 17.4609 54.42 17.4609C55.0461 17.4609 55.4554 17.0122 55.4554 16.1956V12.5748C55.4554 12.3428 55.6459 12.1523 55.8779 12.1523H57.0075C57.2396 12.1523 57.43 12.3428 57.43 12.5748Z" fill="#268B43"/>
<path d="M68.2501 15.4479V18.5367C68.2501 18.7687 68.0596 18.9592 67.8276 18.9592H66.698C66.466 18.9592 66.2755 18.7687 66.2755 18.5367V15.2289C66.2755 14.1935 66.1945 13.6506 65.3101 13.6506C64.371 13.6506 64.2353 14.3029 64.2353 15.2289V18.5367C64.2353 18.7687 64.0448 18.9592 63.8281 18.9592H62.6854C62.4533 18.9592 62.2629 18.7687 62.2629 18.5367V15.2289C62.2629 14.1935 62.1819 13.6506 61.3106 13.6506C60.3036 13.6506 60.2226 14.3029 60.2226 15.2421V18.5345C60.2226 18.7665 60.0322 18.957 59.8001 18.957H58.6705C58.4385 18.957 58.248 18.7665 58.248 18.5345V12.5735C58.248 12.3415 58.4385 12.151 58.6705 12.151H59.8001C60.0322 12.151 60.2226 12.3415 60.2226 12.5735V12.7903C60.6167 12.2736 61.1202 12 61.952 12C62.6197 12 63.3399 12.232 63.8303 12.9391C64.3338 12.3262 65.054 12.0131 65.9253 12.0131C68.0202 12.0175 68.2501 13.4886 68.2501 15.4479Z" fill="#268B43"/>
<path d="M70.5521 21.6803H69.4225C69.1905 21.6803 69 21.4899 69 21.2578V12.5758C69 12.3438 69.1905 12.1533 69.4225 12.1533H70.5521C70.7841 12.1533 70.9746 12.3438 70.9746 12.5758V12.7925C71.4102 12.2759 71.9006 12.0176 72.8112 12.0176C74.348 12.0176 75.2061 13.0924 75.2061 15.2027V15.8157C75.2061 17.9785 74.2801 19.095 72.8112 19.095C71.9816 19.095 71.4233 18.9045 70.9746 18.32V21.26C70.9746 21.4899 70.7819 21.6803 70.5521 21.6803ZM72.102 17.4619C72.9448 17.4619 73.2316 16.8095 73.2316 16.1966V14.9313C73.2316 14.3183 72.9448 13.6528 72.102 13.6528C71.2592 13.6528 70.9724 14.3205 70.9724 14.9313V16.1966C70.9746 16.8095 71.2592 17.4619 72.102 17.4619Z" fill="#268B43"/>
<path d="M31.5281 18.2236C30.5131 25.9847 23.8744 31.9769 15.8373 31.9769C7.80018 31.9769 1.1634 25.9865 0.146484 18.2273C2.06546 17.629 4.25118 17.1381 6.63323 16.7825C8.32438 16.5287 10.1137 16.3435 11.9753 16.2342C13.2348 16.1619 14.5277 16.123 15.8466 16.123C21.8462 16.1249 27.3271 16.9158 31.5281 18.2236Z" fill="#268B43"/>
<path d="M31.6502 16.1522C31.6502 16.8524 31.6058 17.5433 31.5168 18.2194C29.6645 17.4396 27.4566 16.8005 24.9931 16.3393C22.2202 15.8225 19.1213 15.5335 15.8334 15.5335C12.4993 15.5335 9.37448 15.8299 6.57936 16.3615C4.15841 16.8209 1.98381 17.4562 0.135217 18.2268C0.0463067 17.5488 0 16.8561 0 16.1522C0 7.41121 7.08504 0.326172 15.826 0.326172C24.567 0.326172 31.6502 7.41121 31.6502 16.1522Z" fill="#268B43"/>
<path d="M22.9271 19.5066H21.0415C20.4987 19.5066 20.0042 19.7937 19.73 20.2476C18.9836 21.4701 17.7685 21.9628 16.1773 21.9628C14.664 21.9628 13.284 21.2793 12.5746 19.9123C12.5079 19.7845 12.4468 19.653 12.3912 19.5196C12.1004 18.8157 11.8652 17.997 11.8615 17.2302C11.8596 17.0079 11.8504 16.793 11.9022 16.5763C11.9263 16.4781 11.9374 16.3577 11.9652 16.2614C11.9671 16.2577 11.9689 16.2503 11.9726 16.241C10.1111 16.3503 8.32174 16.5356 6.63059 16.7893C7.08441 21.9887 10.8946 25.7952 16.2903 25.7952C19.567 25.7952 22.7493 24.3356 24.2478 21.646C24.7887 20.6754 24.0681 19.5066 22.9271 19.5066ZM16.0292 6.38867C10.0481 6.38867 6.58984 10.6879 6.58984 16.2911C6.58984 16.3151 6.58984 16.3392 6.58984 16.3633C9.38681 15.8317 12.5116 15.5353 15.8439 15.5353C19.1318 15.5353 22.2306 15.8243 25.0035 16.3411C25.0443 16.204 25.0554 16.0503 25.0554 15.8558C25.0554 10.2581 21.9324 6.38867 16.0292 6.38867ZM18.1408 14.1572H13.8898C12.7339 14.1572 12.0189 12.9643 12.5802 11.9937C13.2266 10.8823 14.3991 10.0766 15.9884 10.0766C17.7611 10.0766 18.9336 10.8916 19.5152 12.1197C19.9671 13.0736 19.2318 14.1572 18.1408 14.1572Z" fill="white"/>
<path d="M27.3531 23.4131C28.4477 23.4131 29.335 22.5258 29.335 21.4312C29.335 20.3366 28.4477 19.4492 27.3531 19.4492C26.2584 19.4492 25.3711 20.3366 25.3711 21.4312C25.3711 22.5258 26.2584 23.4131 27.3531 23.4131Z" fill="white"/>
</svg>
