<svg width="109" height="30" viewBox="0 0 109 30" fill="none" xmlns="http://www.w3.org/2000/svg">
<path d="M29.8837 16.9636C28.9215 24.32 22.6291 29.9997 15.0112 29.9997C7.3932 29.9997 1.10255 24.3217 0.138672 16.9671C1.95757 16.4 4.02929 15.9348 6.28712 15.5977C7.89007 15.3572 9.58607 15.1816 11.3505 15.078C12.5444 15.0095 13.7699 14.9727 15.0199 14.9727C20.7066 14.9744 25.9017 15.7241 29.8837 16.9636Z" fill="#268B43"/>
<path d="M29.9996 15.0007C29.9996 15.6643 29.9574 16.3192 29.8731 16.96C28.1175 16.2209 26.0247 15.6151 23.6896 15.178C21.0613 14.6881 18.124 14.4143 15.0077 14.4143C11.8474 14.4143 8.88557 14.6952 6.23623 15.199C3.94154 15.6345 1.88035 16.2367 0.128165 16.967C0.0438916 16.3245 0 15.6678 0 15.0007C0 6.71553 6.71553 0 15.0007 0C23.2858 0 29.9996 6.71553 29.9996 15.0007Z" fill="#268B43"/>
<path d="M21.7313 18.178H19.944C19.4296 18.178 18.9608 18.4501 18.701 18.8802C17.9934 20.039 16.8417 20.506 15.3336 20.506C13.8992 20.506 12.5912 19.8582 11.9187 18.5625C11.8555 18.4413 11.7976 18.3167 11.7449 18.1903C11.4693 17.5231 11.2463 16.7471 11.2428 16.0202C11.241 15.8095 11.2323 15.6059 11.2814 15.4005C11.3043 15.3074 11.3148 15.1933 11.3411 15.102C11.3429 15.0985 11.3446 15.0915 11.3481 15.0827C9.58367 15.1863 7.88767 15.3618 6.28472 15.6024C6.71486 20.5306 10.3263 24.1386 15.4407 24.1386C18.5465 24.1386 21.5628 22.7551 22.9831 20.2058C23.4958 19.2858 22.8128 18.178 21.7313 18.178ZM15.1931 5.74414C9.52398 5.74414 6.24609 9.81911 6.24609 15.1301C6.24609 15.1529 6.24609 15.1757 6.24609 15.1986C8.89719 14.6947 11.8591 14.4138 15.0175 14.4138C18.1339 14.4138 21.0712 14.6876 23.6995 15.1775C23.7381 15.0476 23.7486 14.9018 23.7486 14.7175C23.7486 9.41179 20.7885 5.74414 15.1931 5.74414ZM17.1946 13.1075H13.1653C12.0697 13.1075 11.392 11.9769 11.924 11.0569C12.5367 10.0035 13.6481 9.23973 15.1545 9.23973C16.8347 9.23973 17.946 10.0122 18.4973 11.1763C18.9257 12.0804 18.2287 13.1075 17.1946 13.1075Z" fill="white"/>
<path d="M25.9255 21.8822C26.963 21.8822 27.8041 21.0411 27.8041 20.0036C27.8041 18.9661 26.963 18.125 25.9255 18.125C24.8879 18.125 24.0469 18.9661 24.0469 20.0036C24.0469 21.0411 24.8879 21.8822 25.9255 21.8822Z" fill="white"/>
<path d="M43.5109 11.5547C44.2333 11.5547 44.5926 11.3732 45.1117 10.8324C45.2024 10.7416 45.4057 10.4259 45.834 10.4259H47.776C48.07 10.4259 48.2733 10.6509 48.2733 10.9449C48.2733 11.0792 48.1825 11.2825 48.139 11.3732C47.2134 13.3588 45.3404 14.2626 43.5146 14.2626C40.6942 14.2626 38.3711 12.1428 38.3711 8.98118V7.80875C38.3711 4.65079 40.6942 2.52734 43.5146 2.52734C46.2914 2.52734 48.5455 4.7851 48.5455 7.718V8.68716C48.5455 9.07193 48.2297 9.38772 47.8449 9.38772H41.6379V9.52203C41.6379 10.6509 42.451 11.5547 43.5109 11.5547ZM45.3839 7.08641C45.3839 5.95754 44.5708 5.2352 43.5109 5.2352C42.451 5.2352 41.6379 5.97931 41.6379 7.10819V7.2679H45.3839V7.08641Z" fill="white"/>
<path d="M52.0169 18.5553H50.1439C49.7592 18.5553 49.4434 18.2395 49.4434 17.8547V3.45881C49.4434 3.07405 49.7592 2.75826 50.1439 2.75826H52.0169C52.4017 2.75826 52.7175 3.07405 52.7175 3.45881V3.81817C53.4398 2.96153 54.2529 2.5332 55.7629 2.5332C58.311 2.5332 59.7339 4.31545 59.7339 7.81461V8.83096C59.7339 12.4172 58.1985 14.2684 55.7629 14.2684C54.3872 14.2684 53.4616 13.9526 52.7175 12.9835V17.8583C52.7175 18.2395 52.4017 18.5553 52.0169 18.5553ZM54.5905 11.5606C55.9879 11.5606 56.4634 10.4789 56.4634 9.46255V7.36451C56.4634 6.34816 55.9879 5.24469 54.5905 5.24469C53.193 5.24469 52.7175 6.35179 52.7175 7.36451V9.46255C52.7175 10.4789 53.1893 11.5606 54.5905 11.5606Z" fill="white"/>
<path d="M70.5906 3.45446V13.3385C70.5906 13.7232 70.2748 14.039 69.8901 14.039H68.0171C67.6323 14.039 67.3165 13.7232 67.3165 13.3385V12.9791C66.6632 13.7922 65.919 14.2641 64.4272 14.2641C61.6976 14.2641 60.5215 12.1443 60.5215 8.98269V3.45446C60.5215 3.0697 60.8373 2.75391 61.222 2.75391H63.095C63.4798 2.75391 63.7956 3.0697 63.7956 3.45446V9.45819C63.7956 10.8121 64.5869 11.5562 65.5996 11.5562C66.6377 11.5562 67.3165 10.8121 67.3165 9.45819V3.45446C67.3165 3.0697 67.6323 2.75391 68.0171 2.75391H69.8901C70.2748 2.75391 70.5906 3.0697 70.5906 3.45446Z" fill="white"/>
<path d="M88.5281 8.21698V13.3387C88.5281 13.7234 88.2123 14.0392 87.8275 14.0392H85.9545C85.5697 14.0392 85.2539 13.7234 85.2539 13.3387V7.854C85.2539 6.13709 85.1196 5.23689 83.6532 5.23689C82.096 5.23689 81.8709 6.31858 81.8709 7.854V13.3387C81.8709 13.7234 81.5552 14.0392 81.1958 14.0392H79.301C78.9163 14.0392 78.6005 13.7234 78.6005 13.3387V7.854C78.6005 6.13709 78.4662 5.23689 77.0215 5.23689C75.3518 5.23689 75.2175 6.31858 75.2175 7.87578V13.335C75.2175 13.7198 74.9017 14.0356 74.5169 14.0356H72.6439C72.2592 14.0356 71.9434 13.7198 71.9434 13.335V3.45101C71.9434 3.06625 72.2592 2.75045 72.6439 2.75045H74.5169C74.9017 2.75045 75.2175 3.06625 75.2175 3.45101V3.81037C75.8708 2.95373 76.7057 2.5 78.085 2.5C79.1921 2.5 80.3863 2.88476 81.1994 4.05719C82.0343 3.04084 83.2285 2.52178 84.6732 2.52178C88.1469 2.52904 88.5281 4.96828 88.5281 8.21698Z" fill="white"/>
<path d="M92.347 18.5553H90.474C90.0892 18.5553 89.7734 18.2395 89.7734 17.8547V3.45881C89.7734 3.07405 90.0892 2.75826 90.474 2.75826H92.347C92.7317 2.75826 93.0475 3.07405 93.0475 3.45881V3.81817C93.7699 2.96153 94.583 2.5332 96.093 2.5332C98.6411 2.5332 100.064 4.31545 100.064 7.81461V8.83096C100.064 12.4172 98.5286 14.2684 96.093 14.2684C94.7173 14.2684 93.7917 13.9526 93.0475 12.9835V17.8583C93.0475 18.2395 92.7281 18.5553 92.347 18.5553ZM94.9169 11.5606C96.3144 11.5606 96.7899 10.4789 96.7899 9.46255V7.36451C96.7899 6.34816 96.3144 5.24469 94.9169 5.24469C93.5194 5.24469 93.0439 6.35179 93.0439 7.36451V9.46255C93.0475 10.4789 93.5194 11.5606 94.9169 11.5606Z" fill="white"/>
<path d="M39.3112 22.8029C39.5472 22.6504 39.823 22.5742 40.1497 22.5742C40.4582 22.5742 40.7341 22.6468 40.9809 22.7884C41.2278 22.9299 41.4201 23.1332 41.5581 23.3982C41.696 23.6632 41.765 23.9681 41.765 24.3165C41.765 24.665 41.696 24.9735 41.5581 25.2385C41.4201 25.5035 41.2278 25.7104 40.9809 25.8556C40.7341 26.0008 40.4582 26.0734 40.1497 26.0734C39.8303 26.0734 39.5508 25.9971 39.3148 25.8447C39.0789 25.6922 38.9047 25.5035 38.7994 25.2748V27.6269H38.3711V22.625H38.7994V23.3728C38.9047 23.1441 39.0789 22.9553 39.3112 22.8029ZM41.1588 23.5869C41.0499 23.38 40.8975 23.224 40.7087 23.1187C40.5163 23.0098 40.3022 22.9553 40.0626 22.9553C39.8303 22.9553 39.6161 23.0098 39.4237 23.1223C39.2314 23.2348 39.0789 23.3946 38.9664 23.6015C38.8539 23.8084 38.7994 24.0479 38.7994 24.3238C38.7994 24.596 38.8539 24.8392 38.9664 25.0461C39.0789 25.253 39.2314 25.4127 39.4237 25.5253C39.6161 25.6378 39.8303 25.6922 40.0626 25.6922C40.3022 25.6922 40.52 25.6378 40.7087 25.5289C40.9011 25.42 41.0499 25.2603 41.1588 25.0498C41.2677 24.8392 41.3221 24.596 41.3221 24.3202C41.3258 24.037 41.2713 23.7938 41.1588 23.5869Z" fill="white"/>
<path d="M42.262 23.4041C42.3999 23.1391 42.5923 22.9358 42.8391 22.7942C43.086 22.6527 43.3655 22.5801 43.6776 22.5801C44.0007 22.5801 44.2802 22.6563 44.5161 22.8051C44.7521 22.9539 44.919 23.1463 45.0243 23.3786V22.6309H45.4599V26.0284H45.0243V25.277C44.9154 25.5093 44.7448 25.7017 44.5125 25.8542C44.2766 26.0066 44.0007 26.0829 43.674 26.0829C43.3655 26.0829 43.0896 26.0103 42.8428 25.8651C42.5959 25.7199 42.4036 25.513 42.2656 25.248C42.1277 24.983 42.0587 24.6745 42.0587 24.326C42.0551 23.9739 42.1241 23.6654 42.262 23.4041ZM44.8537 23.6037C44.7412 23.3968 44.5887 23.2371 44.3963 23.1246C44.204 23.012 43.9898 22.9576 43.7575 22.9576C43.5179 22.9576 43.3001 23.012 43.1114 23.1209C42.919 23.2298 42.7702 23.3859 42.6613 23.5892C42.5524 23.7961 42.4979 24.0393 42.4979 24.3188C42.4979 24.5983 42.5524 24.8415 42.6613 25.0484C42.7702 25.2589 42.9226 25.4186 43.1114 25.5275C43.3038 25.6364 43.5179 25.6908 43.7575 25.6908C43.9898 25.6908 44.204 25.6364 44.3963 25.5239C44.5887 25.4114 44.7412 25.2516 44.8537 25.0447C44.9662 24.8378 45.0207 24.5983 45.0207 24.3224C45.0243 24.0538 44.9662 23.8142 44.8537 23.6037Z" fill="white"/>
<path d="M47.0193 22.7387C47.2153 22.6225 47.4585 22.5645 47.7453 22.5645V23.0182H47.6255C47.3097 23.0182 47.0556 23.1017 46.8669 23.2723C46.6745 23.4429 46.5801 23.726 46.5801 24.1253V26.0237H46.1445V22.6262H46.5801V23.2287C46.6745 23.0182 46.8233 22.8548 47.0193 22.7387Z" fill="white"/>
<path d="M48.653 22.995V25.1039C48.653 25.3108 48.6929 25.456 48.7728 25.5323C48.8526 25.6121 48.9906 25.652 49.1902 25.652H49.5895V26.0259H49.1212C48.8127 26.0259 48.5877 25.9533 48.4352 25.8118C48.2864 25.6702 48.2102 25.4343 48.2102 25.1039V22.995H47.7383V22.6284H48.2102V21.7754H48.653V22.6284H49.5859V22.995H48.653Z" fill="white"/>
<path d="M52.5822 22.942C52.8399 23.1924 52.967 23.5554 52.967 24.0345V26.0237H52.5387V24.0817C52.5387 23.7115 52.4479 23.432 52.2628 23.236C52.0777 23.04 51.8272 22.942 51.5078 22.942C51.1811 22.942 50.9198 23.0472 50.7237 23.2541C50.5277 23.461 50.4297 23.7659 50.4297 24.1688V26.0237H49.9941V22.6262H50.4297V23.2033C50.5386 22.9964 50.6947 22.8367 50.898 22.7278C51.1012 22.6189 51.3299 22.5645 51.5876 22.5645C51.9942 22.5645 52.3281 22.6915 52.5822 22.942Z" fill="white"/>
<path d="M56.6812 24.4989H53.8644C53.8753 24.7566 53.9407 24.9744 54.0496 25.1595C54.1621 25.341 54.3073 25.4789 54.4924 25.5733C54.6739 25.6677 54.8735 25.7148 55.0913 25.7148C55.3744 25.7148 55.6104 25.6459 55.8028 25.5079C55.9952 25.37 56.1222 25.1849 56.1839 24.9526H56.6449C56.5614 25.2829 56.3835 25.5551 56.1113 25.7657C55.8391 25.9762 55.4979 26.0815 55.0877 26.0815C54.7683 26.0815 54.4815 26.0089 54.2274 25.8673C53.9733 25.7257 53.7773 25.5225 53.6321 25.2575C53.4906 24.9925 53.418 24.6876 53.418 24.3319C53.418 23.9798 53.4869 23.6713 53.6285 23.4063C53.7701 23.1413 53.9661 22.938 54.2202 22.7965C54.4743 22.6549 54.761 22.5859 55.0841 22.5859C55.4071 22.5859 55.6902 22.6549 55.9334 22.7965C56.1766 22.938 56.3618 23.1268 56.4924 23.3663C56.6231 23.6059 56.6884 23.8709 56.6884 24.1613C56.6921 24.3028 56.6884 24.419 56.6812 24.4989ZM56.1004 23.497C55.9951 23.3192 55.85 23.1849 55.6685 23.0941C55.487 23.0034 55.2873 22.9562 55.0695 22.9562C54.7465 22.9562 54.4706 23.0614 54.2419 23.2683C54.0133 23.4752 53.8862 23.7693 53.8608 24.1468H56.2492C56.2565 23.889 56.2057 23.6749 56.1004 23.497Z" fill="white"/>
<path d="M58.0545 22.7387C58.2505 22.6225 58.4937 22.5645 58.7804 22.5645V23.0182H58.6607C58.3449 23.0182 58.0908 23.1017 57.902 23.2723C57.7096 23.4429 57.6153 23.726 57.6153 24.1253V26.0237H57.1797V22.6262H57.6153V23.2287C57.7096 23.0182 57.8585 22.8548 58.0545 22.7387Z" fill="white"/>
<path d="M59.3298 25.8011C59.083 25.6196 58.9451 25.3764 58.916 25.0643H59.3625C59.3843 25.2567 59.475 25.4091 59.6347 25.5289C59.7944 25.6487 60.0086 25.7068 60.2772 25.7068C60.5131 25.7068 60.6983 25.6523 60.8326 25.5398C60.9669 25.4273 61.0358 25.2893 61.0358 25.1224C61.0358 25.0062 60.9995 24.9118 60.9233 24.8356C60.8471 24.7594 60.7527 24.7013 60.6402 24.6577C60.5277 24.6142 60.3716 24.567 60.1756 24.5162C59.9215 24.4508 59.7182 24.3819 59.5585 24.3165C59.4024 24.2512 59.2681 24.1532 59.1556 24.0225C59.0467 23.8918 58.9922 23.7176 58.9922 23.4962C58.9922 23.3292 59.0431 23.1768 59.1411 23.0352C59.2391 22.8936 59.3806 22.7811 59.5658 22.6976C59.7472 22.6141 59.9541 22.5742 60.1865 22.5742C60.5531 22.5742 60.8471 22.665 61.0685 22.8501C61.2936 23.0352 61.4133 23.2893 61.4279 23.6123H60.9923C60.9814 23.4127 60.9015 23.253 60.76 23.1296C60.6184 23.0062 60.4224 22.9445 60.1719 22.9445C59.9505 22.9445 59.7727 22.9953 59.6384 23.1005C59.5004 23.2058 59.4315 23.3328 59.4315 23.4853C59.4315 23.6196 59.4714 23.7285 59.5512 23.812C59.6311 23.8955 59.7327 23.9644 59.8525 24.0116C59.9723 24.0588 60.1356 24.1133 60.3389 24.1713C60.5821 24.2367 60.7781 24.302 60.9233 24.3637C61.0685 24.4254 61.1919 24.5162 61.2972 24.636C61.4024 24.7557 61.4533 24.9155 61.4605 25.1151C61.4605 25.2966 61.4097 25.4599 61.3117 25.6051C61.2137 25.7467 61.0721 25.8628 60.8943 25.9427C60.7164 26.0262 60.5095 26.0661 60.2772 26.0661C59.8961 26.0734 59.5766 25.9826 59.3298 25.8011Z" fill="white"/>
<path d="M64.2929 22.7267C64.4998 22.8356 64.6596 22.9989 64.7793 23.2203C64.8991 23.4417 64.9572 23.714 64.9572 24.0334V26.0226H64.5289V24.0806C64.5289 23.7104 64.4381 23.4308 64.253 23.2348C64.0679 23.0388 63.8174 22.9408 63.498 22.9408C63.1713 22.9408 62.91 23.0461 62.714 23.253C62.518 23.4599 62.42 23.7648 62.42 24.1677V26.0226H61.9844V21.4199H62.42V23.2058C62.5288 23.0025 62.6849 22.8464 62.8955 22.7339C63.106 22.6214 63.3419 22.5669 63.6033 22.5669C63.8574 22.5633 64.0897 22.6178 64.2929 22.7267Z" fill="white"/>
<path d="M65.6002 21.8938C65.5385 21.8321 65.5059 21.7559 65.5059 21.6651C65.5059 21.5744 65.5385 21.4982 65.6002 21.4364C65.6619 21.3747 65.7382 21.3457 65.8253 21.3457C65.9124 21.3457 65.9886 21.3747 66.0503 21.4364C66.112 21.4982 66.1447 21.5708 66.1447 21.6651C66.1447 21.7559 66.112 21.8321 66.0503 21.8938C65.9886 21.9555 65.9124 21.9882 65.8253 21.9882C65.7382 21.9882 65.6619 21.9555 65.6002 21.8938ZM66.0431 22.627V26.0246H65.6075V22.627H66.0431Z" fill="white"/>
<path d="M67.6589 22.8029C67.8948 22.6504 68.1707 22.5742 68.4974 22.5742C68.8059 22.5742 69.0818 22.6468 69.3286 22.7884C69.5754 22.9299 69.7678 23.1332 69.9057 23.3982C70.0437 23.6632 70.1126 23.9681 70.1126 24.3165C70.1126 24.665 70.0437 24.9735 69.9057 25.2385C69.7678 25.5035 69.5754 25.7104 69.3286 25.8556C69.0818 26.0008 68.8059 26.0734 68.4974 26.0734C68.1779 26.0734 67.8984 25.9971 67.6625 25.8447C67.4266 25.6922 67.2523 25.5035 67.1471 25.2748V27.6269H66.7188V22.625H67.1471V23.3728C67.2523 23.1441 67.4266 22.9553 67.6589 22.8029ZM69.5065 23.5869C69.3976 23.38 69.2451 23.224 69.0564 23.1187C68.864 23.0098 68.6498 22.9553 68.4103 22.9553C68.1779 22.9553 67.9638 23.0098 67.7714 23.1223C67.579 23.2348 67.4266 23.3946 67.314 23.6015C67.2015 23.8084 67.1471 24.0479 67.1471 24.3238C67.1471 24.596 67.2015 24.8392 67.314 25.0461C67.4266 25.253 67.579 25.4127 67.7714 25.5253C67.9638 25.6378 68.1779 25.6922 68.4103 25.6922C68.6498 25.6922 68.8676 25.6378 69.0564 25.5289C69.2487 25.42 69.3976 25.2603 69.5065 25.0498C69.6154 24.8392 69.6698 24.596 69.6698 24.3202C69.6734 24.037 69.619 23.7938 69.5065 23.5869Z" fill="white"/>
<path d="M72.5729 22.995V25.1039C72.5729 25.3108 72.6129 25.456 72.6927 25.5323C72.7726 25.6121 72.9105 25.652 73.1101 25.652H73.5094V26.0259H73.0412C72.7326 26.0259 72.5076 25.9533 72.3551 25.8118C72.2063 25.6702 72.1301 25.4343 72.1301 25.1039V22.995H71.6582V22.6284H72.1301V21.7754H72.5729V22.6284H73.5058V22.995H72.5729Z" fill="white"/>
<path d="M76.2168 22.7267C76.4237 22.8356 76.5834 22.9989 76.7032 23.2203C76.823 23.4417 76.881 23.714 76.881 24.0334V26.0226H76.4527V24.0806C76.4527 23.7104 76.362 23.4308 76.1768 23.2348C75.9917 23.0388 75.7413 22.9408 75.4218 22.9408C75.0952 22.9408 74.8338 23.0461 74.6378 23.253C74.4418 23.4599 74.3438 23.7648 74.3438 24.1677V26.0226H73.9082V21.4199H74.3438V23.2058C74.4527 23.0025 74.6088 22.8464 74.8193 22.7339C75.0298 22.6214 75.2658 22.5669 75.5271 22.5669C75.7812 22.5633 76.0099 22.6178 76.2168 22.7267Z" fill="white"/>
<path d="M77.5452 23.4041C77.6831 23.1391 77.8755 22.9358 78.1223 22.7942C78.3692 22.6527 78.6487 22.5801 78.9608 22.5801C79.2839 22.5801 79.5634 22.6563 79.7993 22.8051C80.0353 22.9539 80.2022 23.1463 80.3075 23.3786V22.6309H80.7431V26.0284H80.3075V25.277C80.1986 25.5093 80.028 25.7017 79.7957 25.8542C79.5598 26.0066 79.2839 26.0829 78.9572 26.0829C78.6487 26.0829 78.3728 26.0103 78.126 25.8651C77.8791 25.7199 77.6868 25.513 77.5488 25.248C77.4109 24.983 77.3419 24.6745 77.3419 24.326C77.3383 23.9739 77.4073 23.6654 77.5452 23.4041ZM80.1369 23.6037C80.0244 23.3968 79.8719 23.2371 79.6795 23.1246C79.4872 23.012 79.273 22.9576 79.0407 22.9576C78.8011 22.9576 78.5833 23.012 78.3946 23.1209C78.2022 23.2298 78.0534 23.3859 77.9445 23.5892C77.8356 23.7961 77.7811 24.0393 77.7811 24.3188C77.7811 24.5983 77.8356 24.8415 77.9445 25.0484C78.0534 25.2589 78.2058 25.4186 78.3946 25.5275C78.587 25.6364 78.8011 25.6908 79.0407 25.6908C79.273 25.6908 79.4872 25.6364 79.6795 25.5239C79.8719 25.4114 80.0244 25.2516 80.1369 25.0447C80.2494 24.8378 80.3039 24.5983 80.3039 24.3224C80.3039 24.0538 80.2494 23.8142 80.1369 23.6037Z" fill="white"/>
<path d="M81.9928 22.995V25.1039C81.9928 25.3108 82.0328 25.456 82.1126 25.5323C82.1925 25.6121 82.3304 25.652 82.5301 25.652H82.9293V26.0259H82.4611C82.1526 26.0259 81.9275 25.9533 81.7751 25.8118C81.6262 25.6702 81.55 25.4343 81.55 25.1039V22.995H81.0781V22.6284H81.55V21.7754H81.9928V22.6284H82.9257V22.995H81.9928Z" fill="white"/>
<path d="M89.2002 22.6289L88.1367 26.0264H87.7011L86.761 23.177L85.8208 26.0264H85.378L84.3145 22.6289H84.7573L85.603 25.5836L86.5541 22.6289H86.9896L87.9298 25.5908L88.7682 22.6289H89.2002Z" fill="white"/>
<path d="M90.1072 25.8592C89.8531 25.7176 89.6498 25.5144 89.5046 25.2494C89.3594 24.9844 89.2832 24.6795 89.2832 24.3238C89.2832 23.9717 89.3594 23.6632 89.5083 23.3982C89.6571 23.1332 89.8603 22.9299 90.1181 22.7884C90.3758 22.6468 90.6625 22.5742 90.982 22.5742C91.3014 22.5742 91.5918 22.6468 91.8495 22.7884C92.1072 22.9299 92.3105 23.1332 92.4593 23.3982C92.6081 23.6632 92.6807 23.9681 92.6807 24.3238C92.6807 24.6723 92.6045 24.9808 92.4557 25.2458C92.3069 25.5107 92.1 25.714 91.8386 25.8592C91.5773 26.0008 91.2869 26.0734 90.9674 26.0734C90.648 26.0734 90.3613 26.0008 90.1072 25.8592ZM91.5918 25.5398C91.7842 25.4381 91.9366 25.2857 92.0564 25.0788C92.1762 24.8719 92.2343 24.6214 92.2343 24.3238C92.2343 24.0261 92.1762 23.7721 92.06 23.5688C91.9439 23.3619 91.7914 23.2094 91.599 23.1078C91.4067 23.0062 91.1998 22.9553 90.9783 22.9553C90.7533 22.9553 90.5464 23.0062 90.3576 23.1078C90.1653 23.2094 90.0128 23.3619 89.9003 23.5688C89.7878 23.7757 89.7297 24.0261 89.7297 24.3238C89.7297 24.6214 89.7878 24.8755 89.9003 25.0788C90.0128 25.2857 90.1653 25.4381 90.354 25.5398C90.5428 25.6414 90.7497 25.6922 90.9747 25.6922C91.1925 25.6922 91.3994 25.6414 91.5918 25.5398Z" fill="white"/>
<path d="M94.0369 22.7387C94.2329 22.6225 94.4761 22.5645 94.7629 22.5645V23.0182H94.6431C94.3273 23.0182 94.0732 23.1017 93.8844 23.2723C93.6921 23.4429 93.5977 23.726 93.5977 24.1253V26.0237H93.1621V22.6262H93.5977V23.2287C93.6921 23.0182 93.8409 22.8548 94.0369 22.7387Z" fill="white"/>
<path d="M96.9382 26.0226L95.5371 24.498V26.0226H95.1016V21.4199H95.5371V24.1459L96.9056 22.6287H97.5154L95.9038 24.3202L97.5263 26.0262H96.9382V26.0226Z" fill="white"/>
<path d="M97.9958 25.8011C97.749 25.6196 97.6111 25.3764 97.582 25.0643H98.0285C98.0503 25.2567 98.141 25.4091 98.3007 25.5289C98.4605 25.6487 98.6746 25.7068 98.9432 25.7068C99.1792 25.7068 99.3643 25.6523 99.4986 25.5398C99.6329 25.4273 99.7019 25.2893 99.7019 25.1224C99.7019 25.0062 99.6656 24.9118 99.5893 24.8356C99.5131 24.7594 99.4187 24.7013 99.3062 24.6577C99.1937 24.6142 99.0376 24.567 98.8416 24.5162C98.5875 24.4508 98.3842 24.3819 98.2245 24.3165C98.0684 24.2512 97.9341 24.1532 97.8216 24.0225C97.7127 23.8918 97.6583 23.7176 97.6583 23.4962C97.6583 23.3292 97.7091 23.1768 97.8071 23.0352C97.9051 22.8936 98.0467 22.7811 98.2318 22.6976C98.4133 22.6141 98.6202 22.5742 98.8525 22.5742C99.2191 22.5742 99.5131 22.665 99.7345 22.8501C99.9596 23.0352 100.079 23.2893 100.094 23.6123H99.6583C99.6474 23.4127 99.5676 23.253 99.426 23.1296C99.2844 23.0062 99.0884 22.9445 98.8379 22.9445C98.6165 22.9445 98.4387 22.9953 98.3044 23.1005C98.1664 23.2058 98.0975 23.3328 98.0975 23.4853C98.0975 23.6196 98.1374 23.7285 98.2173 23.812C98.2971 23.8955 98.3987 23.9644 98.5185 24.0116C98.6383 24.0588 98.8017 24.1133 99.0049 24.1713C99.2481 24.2367 99.4441 24.302 99.5893 24.3637C99.7345 24.4254 99.8579 24.5162 99.9632 24.636C100.068 24.7557 100.119 24.9155 100.127 25.1151C100.127 25.2966 100.076 25.4599 99.9777 25.6051C99.8797 25.7467 99.7382 25.8628 99.5603 25.9427C99.3824 26.0262 99.1755 26.0661 98.9432 26.0661C98.5621 26.0734 98.2427 25.9826 97.9958 25.8011Z" fill="white"/>
</svg>
