<svg width="114" height="51" viewBox="0 0 114 51" fill="none" xmlns="http://www.w3.org/2000/svg">
<rect x="1" y="-1" width="112" height="53" rx="13" stroke="#F7F7F7" stroke-width="2"/>
<g clip-path="url(#clip0_42600_152918)">
<path fill-rule="evenodd" clip-rule="evenodd" d="M51.3431 23.0497C51.3431 20.1194 49.964 18.4199 46.5407 18.4199C44.8662 18.4199 43.7331 18.5676 42.7237 18.7397C42.379 18.7891 42.2068 18.9368 42.2068 19.2078V20.07C42.2068 20.3898 42.4284 20.4641 42.6499 20.4641H42.7731C43.7581 20.3653 44.9401 20.267 46.5407 20.267C48.4866 20.267 49.1756 20.981 49.1756 23.0497V24.0346H47.3535C42.9453 24.0346 41.418 25.3643 41.418 28.0242V28.3196C41.418 31.3981 43.3389 32.3092 45.432 32.3092C46.8111 32.3092 48.0425 31.7923 49.2245 31.1022V31.6441C49.2245 31.915 49.4461 32.1371 49.717 32.1371H50.8496C51.1205 32.1371 51.3421 31.915 51.3421 31.6441V23.0492L51.3431 23.0497ZM49.1756 29.5515C47.9936 30.2161 47.0087 30.5364 45.8511 30.5364C44.3982 30.5364 43.5854 30.0684 43.5854 28.2956V27.9998C43.5854 26.2514 44.3733 25.5863 47.3535 25.5863H49.1756V29.5515ZM63.3552 24.5026C63.3552 20.8089 61.6558 18.4199 57.9865 18.4199C56.4841 18.4199 54.7603 18.6659 53.455 18.9862C52.987 19.0845 52.9376 19.2322 52.9376 19.5525V36.4959C52.9376 36.7668 53.1103 36.9639 53.3807 36.9639H54.6365C54.9075 36.9639 55.1045 36.7668 55.1045 36.4959V32.0383C56.065 32.2109 57.2221 32.3092 57.986 32.3092C61.6064 32.3092 63.3547 30.1423 63.3547 26.2754V24.5021L63.3552 24.5026ZM61.1883 26.2759C61.1883 28.9358 60.4249 30.487 57.9865 30.487C57.1987 30.487 55.9178 30.4132 55.1051 30.2411V20.4886C55.7946 20.3653 56.9277 20.2421 57.9865 20.2421C60.4244 20.2421 61.1883 21.9415 61.1883 24.5026V26.2759Z" fill="#00903A"/>
<path fill-rule="evenodd" clip-rule="evenodd" d="M65.1036 15.9296L74.3967 15.5762L64 19.7853L65.1036 15.9296Z" fill="#83B527"/>
<path fill-rule="evenodd" clip-rule="evenodd" d="M68.429 6.71771L59.6074 8.91011L70.0046 4.7168L68.429 6.71771Z" fill="#83B527"/>
<path fill-rule="evenodd" clip-rule="evenodd" d="M59.6055 8.90851L68.426 6.70898L74.3931 15.5774L65.102 15.9298L59.6055 8.90851Z" fill="#008E3B"/>
<path fill-rule="evenodd" clip-rule="evenodd" d="M68.4297 6.71771L70.0054 4.7168L74.3973 15.5861L68.4297 6.71771Z" fill="#FFD200"/>
<path fill-rule="evenodd" clip-rule="evenodd" d="M59.6055 8.91016L65.104 15.9319L64.0004 19.7861L59.6055 8.91016Z" fill="#C3D100"/>
<path fill-rule="evenodd" clip-rule="evenodd" d="M39.8301 45.1337L42.2033 42.9606C42.2033 42.2599 41.8733 41.8535 41.0549 41.8535C40.6546 41.8535 40.3837 41.8886 40.1423 41.9299C40.0598 41.9416 40.0185 41.9767 40.0185 42.0419V42.2482C40.0185 42.3245 40.0715 42.3424 40.1244 42.3424H40.154C40.3893 42.3189 40.6719 42.2955 41.0549 42.2955C41.5198 42.2955 41.6848 42.4661 41.6848 42.9611V43.1964H41.2489C40.1947 43.1964 39.8301 43.5147 39.8301 44.1503V44.2211C39.8301 44.957 40.2894 45.1749 40.79 45.1749C41.1195 45.1749 41.4144 45.0512 41.6971 44.8867V45.016C41.6971 45.0807 41.75 45.1337 41.8147 45.1337H42.0856C42.1503 45.1337 42.2033 45.0807 42.2033 45.016V42.9611L39.8301 45.1337ZM41.6848 44.5154C41.4022 44.6743 41.1664 44.7512 40.8899 44.7512C40.5425 44.7512 40.348 44.6392 40.348 44.2155V44.1447C40.348 43.7266 40.5364 43.5677 41.2489 43.5677H41.6848V44.5154ZM43.0038 45.1337L44.4583 41.9599C44.4583 41.8891 44.4171 41.854 44.3346 41.854C44.0697 41.854 43.8044 41.9304 43.5044 42.1366V42.0129C43.5044 41.9482 43.4576 41.8952 43.3924 41.8952H43.1159C43.0512 41.8952 43.0038 41.9482 43.0038 42.0129V45.016C43.0038 45.0807 43.0507 45.1337 43.1159 45.1337H43.4046C43.4693 45.1337 43.5223 45.0807 43.5223 45.016V42.5486C43.8227 42.3663 44.058 42.3011 44.3351 42.3011C44.4176 42.3011 44.4588 42.2655 44.4588 42.2008V41.9594L43.0038 45.1337ZM47.4024 40.8171C47.4024 40.7524 47.3611 40.7051 47.2965 40.7051H46.996C46.9313 40.7051 46.8839 40.7519 46.8839 40.8171V41.9126C46.6543 41.8713 46.3772 41.8535 46.1949 41.8535C45.3292 41.8535 44.911 42.3714 44.911 43.2962V43.7199C44.911 44.5974 45.3174 45.1744 46.1949 45.1744C46.5539 45.1744 46.9074 45.1449 47.2786 45.0746C47.3907 45.0568 47.4024 45.0155 47.4024 44.9391V40.8171ZM46.8845 44.686C46.6782 44.7038 46.4017 44.7212 46.1954 44.7212C45.6123 44.7212 45.43 44.3621 45.43 43.7199V43.2962C45.43 42.6663 45.6245 42.3067 46.1954 42.3067C46.3838 42.3067 46.6899 42.3067 46.8845 42.348V44.6855V44.686ZM50.7177 43.2906C50.7177 42.4249 50.2762 41.854 49.4048 41.854C48.5335 41.854 48.0975 42.4249 48.0975 43.2906V43.7383C48.0975 44.604 48.5391 45.1749 49.4048 45.1749C50.2706 45.1749 50.7177 44.604 50.7177 43.7383V43.2906ZM50.1998 43.7383C50.1998 44.3509 49.9523 44.7217 49.4048 44.7217C48.8574 44.7217 48.616 44.3448 48.616 43.7383V43.2906C48.616 42.678 48.8574 42.3072 49.4048 42.3072C49.9523 42.3072 50.1998 42.6841 50.1998 43.2906V43.7383ZM51.2418 45.1337L53.9032 41.9951C53.9032 41.9304 53.8736 41.8947 53.809 41.8947H53.4851C53.4321 41.8947 53.3965 41.9304 53.373 42.0068L52.6957 44.574C52.6545 44.7156 52.6249 44.7446 52.572 44.7446C52.5073 44.7446 52.4895 44.7151 52.4482 44.574L51.7709 42.0068C51.7475 41.9304 51.7118 41.8947 51.6588 41.8947H51.3349C51.2703 41.8947 51.2407 41.9304 51.2407 41.9951C51.2407 42.0124 51.2407 42.0246 51.2463 42.0363L52.0413 44.8393C52.1177 45.1041 52.3178 45.1749 52.5715 45.1749C52.8251 45.1749 53.0247 45.1041 53.1016 44.8393L53.8966 42.0363C53.9027 42.0246 53.9027 42.0129 53.9027 41.9951L51.2418 45.1337ZM54.416 45.1337L56.7887 42.9606C56.7887 42.2599 56.4592 41.8535 55.6403 41.8535C55.24 41.8535 54.9691 41.8886 54.7277 41.9299C54.6452 41.9416 54.6039 41.9767 54.6039 42.0419V42.2482C54.6039 42.3245 54.6569 42.3424 54.7099 42.3424H54.7394C54.9747 42.3189 55.2573 42.2955 55.6403 42.2955C56.1053 42.2955 56.2703 42.4661 56.2703 42.9611V43.1964H55.8343C54.7801 43.1964 54.4155 43.5147 54.4155 44.1503V44.2211C54.4155 44.957 54.8749 45.1749 55.3755 45.1749C55.7055 45.1749 55.9998 45.0512 56.2825 44.8867V45.016C56.2825 45.0807 56.3354 45.1337 56.4001 45.1337H56.6711C56.7357 45.1337 56.7887 45.0807 56.7887 45.016V42.9611L54.416 45.1337ZM56.2708 44.5154C55.9881 44.6743 55.7523 44.7512 55.4758 44.7512C55.1285 44.7512 54.9339 44.6392 54.9339 44.2155V44.1447C54.9339 43.7266 55.1224 43.5677 55.8348 43.5677H56.2708V44.5154Z" fill="#00903A"/>
<path fill-rule="evenodd" clip-rule="evenodd" d="M58.8677 45.1354L61.0993 43.7634C61.0993 44.7 60.7163 45.1705 59.9453 45.1705C59.8862 45.1705 59.8216 45.1705 59.7569 45.1649C59.6861 45.1588 59.6153 45.1532 59.5389 45.1471C59.4625 45.141 59.3917 45.1293 59.3209 45.1176C59.2502 45.1059 59.1855 45.0941 59.1264 45.0824V46.1718C59.1264 46.2013 59.1203 46.2308 59.103 46.2543C59.0852 46.2721 59.0561 46.2838 59.0266 46.2838H58.9675C58.938 46.2838 58.9146 46.2721 58.8967 46.2543C58.8789 46.2308 58.8672 46.2013 58.8672 46.1718V42.1679C58.8672 42.1328 58.8733 42.1088 58.8845 42.0915C58.8962 42.0737 58.9202 42.062 58.9553 42.0564C59.0846 42.0268 59.2379 42.0034 59.4203 41.98C59.6031 41.9565 59.7737 41.9443 59.9443 41.9443C60.1505 41.9443 60.3211 41.98 60.4683 42.0446C60.6155 42.1154 60.7331 42.2153 60.8274 42.339C60.9216 42.4684 60.9924 42.6217 61.0336 42.7928C61.0749 42.9695 61.0983 43.1635 61.0983 43.3759V43.7644L58.8677 45.1354ZM60.8401 43.3749C60.8401 42.9919 60.7754 42.6975 60.6399 42.4857C60.5045 42.2794 60.2748 42.1735 59.9448 42.1735C59.8037 42.1735 59.6566 42.1796 59.5089 42.1969C59.3617 42.2147 59.2323 42.2321 59.1259 42.2499V44.8645C59.1789 44.8762 59.2435 44.8879 59.3143 44.894C59.3851 44.9057 59.4559 44.9113 59.5323 44.9174C59.6087 44.9235 59.6795 44.9291 59.7503 44.9353C59.821 44.9414 59.8857 44.9414 59.9448 44.9414C60.2687 44.9414 60.5045 44.841 60.6399 44.647C60.7754 44.4525 60.8401 44.1581 60.8401 43.7639V43.3754V43.3749ZM62.1535 45.0234C62.1535 45.0529 62.1474 45.0824 62.1301 45.0998C62.1122 45.1232 62.0832 45.1349 62.0537 45.1349H61.9946C61.9651 45.1349 61.9416 45.1232 61.9238 45.0998C61.9065 45.0819 61.8943 45.0524 61.8943 45.0234V40.8718C61.8943 40.8423 61.906 40.8127 61.9238 40.7893C61.9416 40.7715 61.9651 40.7598 61.9946 40.7598H62.0537C62.0832 40.7598 62.1128 40.7715 62.1301 40.7893C62.1479 40.8127 62.1535 40.8423 62.1535 40.8718V45.0234ZM62.9485 45.1354L64.9387 45.0116C64.9387 45.0412 64.9326 45.0646 64.9153 45.0824C64.8974 45.1003 64.8684 45.112 64.8271 45.1176C64.7034 45.1354 64.574 45.1471 64.4503 45.1588C64.3209 45.1649 64.2089 45.1705 64.1147 45.1705C63.9028 45.1705 63.7261 45.1293 63.5789 45.0529C63.4318 44.9765 63.308 44.8762 63.2199 44.7468C63.1257 44.6175 63.0549 44.4642 63.0136 44.2936C62.9724 44.123 62.949 43.9401 62.949 43.7461V43.3514C62.949 43.1569 62.9724 42.9685 63.0136 42.7979C63.0549 42.6273 63.1257 42.4801 63.2199 42.3502C63.3085 42.2265 63.4318 42.1266 63.5789 42.0497C63.7261 41.979 63.9028 41.9438 64.1147 41.9438C64.2089 41.9438 64.3209 41.9499 64.4503 41.9555C64.574 41.9672 64.7034 41.979 64.8271 41.9968C64.8684 42.0024 64.8979 42.0141 64.9153 42.0319C64.9331 42.0497 64.9387 42.0732 64.9387 42.1027V42.144C64.9387 42.1969 64.9091 42.2265 64.8445 42.2265H64.8149C64.5384 42.1913 64.3082 42.1735 64.1142 42.1735C63.9436 42.1735 63.802 42.203 63.6905 42.256C63.5728 42.309 63.4786 42.3915 63.4078 42.4913C63.337 42.5972 63.2841 42.721 63.2545 42.8681C63.225 43.0153 63.2077 43.1742 63.2077 43.3509V43.7456C63.2077 43.9223 63.2255 44.0812 63.2545 44.2284C63.2841 44.3756 63.337 44.5049 63.4078 44.6114C63.4786 44.7173 63.5728 44.7998 63.6905 44.8528C63.8025 44.9118 63.9436 44.9414 64.1142 44.9414C64.3087 44.9414 64.5384 44.9235 64.8149 44.8884H64.8445C64.9091 44.8884 64.9387 44.9179 64.9387 44.9709V45.0122L62.9485 45.1354Z" fill="#00903A"/>
</g>
<defs>
<clipPath id="clip0_42600_152918">
<rect width="41.5664" height="41.5664" fill="white" transform="translate(36.2168 4.7168)"/>
</clipPath>
</defs>
</svg>
