<svg width="42" height="42" viewBox="0 0 42 42" fill="none" xmlns="http://www.w3.org/2000/svg">
<rect x="0.5" y="0.5" width="41" height="41" rx="20.5" fill="#F1FCF3"/>
<rect x="0.5" y="0.5" width="41" height="41" rx="20.5" stroke="#F1FCF3"/>
<path d="M18 31H24C29 31 31 29 31 24V18C31 13 29 11 24 11H18C13 11 11 13 11 18V24C11 29 13 31 18 31Z" stroke="#292D32" stroke-width="1.20339" stroke-linecap="round" stroke-linejoin="round"/>
<path d="M21 24.5C22.933 24.5 24.5 22.933 24.5 21C24.5 19.067 22.933 17.5 21 17.5C19.067 17.5 17.5 19.067 17.5 21C17.5 22.933 19.067 24.5 21 24.5Z" stroke="#292D32" stroke-width="1.20339" stroke-linecap="round" stroke-linejoin="round"/>
<path d="M26.6361 16H26.6477" stroke="#292D32" stroke-width="1.60452" stroke-linecap="round" stroke-linejoin="round"/>
</svg>
