<svg width="459" height="175" viewBox="0 0 459 175" fill="none" xmlns="http://www.w3.org/2000/svg">
<rect x="61" width="337" height="91" rx="12" fill="#DFFDDF"/>
<rect x="35" y="19" width="389" height="91" rx="12" fill="#F9FDDF"/>
<rect x="24" y="42" width="411" height="91" rx="12" fill="white"/>
<rect y="65" width="459" height="91" rx="12" fill="#DFF4FD"/>
<rect x="170" y="92.291" width="82" height="82" rx="41" fill="#EEEEEE"/>
<path d="M234.869 136.441C233.326 148.239 223.235 157.347 211.018 157.347C198.8 157.347 188.712 148.242 187.166 136.447C190.083 135.537 193.406 134.791 197.027 134.25C199.597 133.865 202.317 133.583 205.147 133.417C207.062 133.307 209.027 133.248 211.032 133.248C220.152 133.251 228.483 134.453 234.869 136.441Z" fill="#268B43"/>
<path d="M235.055 133.292C235.055 134.356 234.987 135.406 234.852 136.434C232.036 135.248 228.68 134.277 224.935 133.576C220.72 132.79 216.01 132.351 211.012 132.351C205.944 132.351 201.194 132.802 196.945 133.61C193.265 134.308 189.959 135.274 187.149 136.445C187.014 135.415 186.943 134.362 186.943 133.292C186.943 120.004 197.713 109.234 211.001 109.234C224.288 109.234 235.055 120.004 235.055 133.292Z" fill="#268B43"/>
<path d="M221.797 138.39H218.931C218.106 138.39 217.354 138.826 216.937 139.516C215.803 141.374 213.956 142.123 211.537 142.123C209.236 142.123 207.139 141.084 206.06 139.006C205.959 138.812 205.866 138.612 205.782 138.41C205.34 137.34 204.982 136.095 204.976 134.929C204.974 134.592 204.959 134.265 205.038 133.935C205.075 133.786 205.092 133.603 205.134 133.457C205.137 133.451 205.14 133.44 205.145 133.426C202.315 133.592 199.596 133.874 197.025 134.259C197.715 142.163 203.507 147.949 211.709 147.949C216.69 147.949 221.527 145.73 223.805 141.642C224.627 140.167 223.532 138.39 221.797 138.39ZM211.312 118.449C202.22 118.449 196.963 124.984 196.963 133.502C196.963 133.538 196.963 133.575 196.963 133.612C201.215 132.804 205.965 132.353 211.03 132.353C216.028 132.353 220.738 132.792 224.954 133.578C225.016 133.37 225.032 133.136 225.032 132.84C225.032 124.331 220.285 118.449 211.312 118.449ZM214.521 130.258H208.059C206.303 130.258 205.216 128.445 206.069 126.969C207.051 125.28 208.834 124.055 211.25 124.055C213.944 124.055 215.727 125.294 216.611 127.161C217.298 128.611 216.18 130.258 214.521 130.258Z" fill="white"/>
<path d="M228.521 144.328C230.185 144.328 231.533 142.979 231.533 141.316C231.533 139.652 230.185 138.303 228.521 138.303C226.857 138.303 225.508 139.652 225.508 141.316C225.508 142.979 226.857 144.328 228.521 144.328Z" fill="white"/>
</svg>
