<svg width="78" height="42" viewBox="0 0 78 42" fill="none" xmlns="http://www.w3.org/2000/svg">
<path d="M56.7627 2.13643C56.7627 2.5242 56.4477 2.83926 56.0599 2.83926H46.7243C46.3366 2.83926 46.0215 2.5242 46.0215 2.13643C46.0215 1.74866 46.3366 1.43359 46.7243 1.43359H56.0599C56.4477 1.43359 56.7627 1.74866 56.7627 2.13643Z" fill="#B7B9BB"/>
<path d="M54.9466 0.513154C54.9466 0.365317 54.8254 0.244141 54.6776 0.244141H48.1412C48.0564 0.244141 47.9837 0.287765 47.9328 0.348354C47.8698 0.396825 47.8262 0.46953 47.8262 0.556779V2.07878C47.8262 2.22661 47.9473 2.34779 48.0952 2.34779C48.243 2.34779 48.3642 2.22661 48.3642 2.07878V0.779748H54.4086V2.07878C54.4086 2.22661 54.5297 2.34779 54.6776 2.34779C54.8254 2.34779 54.9466 2.22661 54.9466 2.07878V0.556779C54.9466 0.556779 54.9417 0.542238 54.9417 0.534967C54.9417 0.527697 54.9466 0.520425 54.9466 0.513154Z" fill="#B7B9BB"/>
<path d="M17.5175 5.1976H32.5581V4.71289H17.5175C9.88571 4.71289 3.456 9.96717 1.66014 17.0512C0.729494 17.124 0 17.8728 0 18.7889V24.0868C0 25.049 0.80947 25.8318 1.8104 25.8318C1.82979 25.8318 1.84676 25.8318 1.86615 25.8294C3.90678 32.5378 10.1523 37.4358 17.5175 37.4358H32.5581V36.9511H17.5175C10.3922 36.9511 4.34787 32.2324 2.34843 25.7543C3.08519 25.5337 3.6208 24.8721 3.6208 24.0893V18.7914C3.6208 17.9407 2.99068 17.2354 2.15455 17.0803C3.93102 10.2556 10.145 5.20245 17.5175 5.20245V5.1976Z" fill="white"/>
<path d="M27.1059 40.0553H14.8281L17.2517 36.0977H24.6823L27.1059 40.0553Z" fill="url(#paint0_linear_33080_262941)"/>
<path d="M63.2172 40.0553H50.9395L53.363 36.0977H60.7936L63.2172 40.0553Z" fill="url(#paint1_linear_33080_262941)"/>
<path d="M57.8117 4.44878H44.9668L45.4515 2.26758L57.2397 2.28939L57.8117 4.44878Z" fill="url(#paint2_linear_33080_262941)"/>
<path d="M75.7444 41.7604H2.43164L3.64342 39.3223H74.775L75.7444 41.7604Z" fill="url(#paint3_linear_33080_262941)"/>
<path d="M3.47298 23.9187C3.47298 24.8226 2.74107 25.5546 1.83708 25.5546C0.933088 25.5546 0.201172 24.8226 0.201172 23.9187V18.9504C0.201172 18.0464 0.933088 17.3145 1.83708 17.3145C2.74107 17.3145 3.47298 18.0464 3.47298 18.9504V23.9187Z" fill="url(#paint4_linear_33080_262941)"/>
<path d="M77.9984 23.9187C77.9984 24.8226 77.2665 25.5546 76.3625 25.5546C75.4585 25.5546 74.7266 24.8226 74.7266 23.9187V18.9504C74.7266 18.0464 75.4585 17.3145 76.3625 17.3145C77.2665 17.3145 77.9984 18.0464 77.9984 18.9504V23.9187Z" fill="url(#paint5_linear_33080_262941)"/>
<path d="M59.145 4.95617C59.145 5.82623 58.4615 6.53149 57.6206 6.53149H45.2119C44.371 6.53149 43.6875 5.82623 43.6875 4.95617C43.6875 4.08612 44.371 3.38086 45.2119 3.38086H57.6206C58.4615 3.38086 59.145 4.08612 59.145 4.95617Z" fill="#1D8230"/>
<g clip-path="url(#clip0_33080_262941)">
<rect x="1.41406" y="5.11719" width="75.3728" height="32.2334" rx="16.1167" fill="url(#paint6_linear_33080_262941)"/>
<mask id="mask0_33080_262941" style="mask-type:alpha" maskUnits="userSpaceOnUse" x="-3" y="8" width="84" height="33">
<rect x="-2.49219" y="8.16211" width="83.184" height="32.2334" rx="16.1167" fill="url(#paint7_linear_33080_262941)"/>
</mask>
<g mask="url(#mask0_33080_262941)">
<path opacity="0.6" d="M-589.03 29.7513C-612.567 28.5413 -629.579 23.6113 -653.147 23.5319C-677.16 23.451 -684.321 28.1284 -708.309 29.2271C-732.085 30.3161 -774.19 26.116 -774.417 29.2273C-774.643 32.3386 -774.417 235.351 -774.417 235.351H197.073V29.2273C197.073 29.2273 159.987 35.6091 135.615 34.3561C112.078 33.1461 98.9773 23.6113 75.4097 23.5319C51.3965 23.451 37.213 33.2574 13.2247 34.3561C-10.5513 35.445 -21.628 29.3486 -45.8604 29.2273C-70.6864 29.1029 -82.611 35.6091 -106.984 34.3561C-130.521 33.1461 -144.975 25.7107 -168.542 25.6312C-192.556 25.5503 -208.536 33.2574 -232.524 34.3561C-256.3 35.445 -267.669 25.7526 -291.902 25.6312C-316.728 25.5069 -326.906 35.6091 -351.279 34.3561C-374.816 33.1461 -388.785 23.6113 -412.353 23.5319C-436.366 23.451 -448.226 30.5915 -472.215 31.6902C-495.991 32.7792 -512.796 22.1171 -532.561 23.5319C-532.561 23.5319 -564.657 31.0043 -589.03 29.7513Z" fill="url(#paint8_linear_33080_262941)"/>
<path d="M663.622 31.0794C687.159 29.8694 704.171 24.9394 727.739 24.86C751.752 24.7791 758.913 29.4566 782.901 30.5552C806.677 31.6442 848.782 27.4441 849.009 30.5554C849.235 33.6667 849.009 236.679 849.009 236.679H-122.481V30.5554C-122.481 30.5554 -85.3957 36.9372 -61.0228 35.6842C-37.4863 34.4742 -24.3855 24.9394 -0.817932 24.86C23.1953 24.7791 37.3788 34.5855 61.3671 35.6842C85.1431 36.7731 96.2198 30.6768 120.452 30.5554C145.278 30.4311 157.203 36.9372 181.576 35.6842C205.112 34.4742 219.567 27.0388 243.134 26.9594C267.147 26.8784 283.128 34.5855 307.116 35.6842C330.892 36.7731 342.261 27.0807 366.493 26.9594C391.319 26.835 401.498 36.9372 425.871 35.6842C449.407 34.4742 463.377 24.9395 486.945 24.86C510.958 24.7791 522.818 31.9197 546.806 33.0183C570.582 34.1073 587.388 23.4452 607.153 24.86C607.153 24.86 639.249 32.3324 663.622 31.0794Z" fill="url(#paint9_linear_33080_262941)"/>
</g>
</g>
<g style="mix-blend-mode:multiply" opacity="0.3">
<path d="M17.5158 37.1891H60.6552C69.2467 37.1891 76.2654 30.4661 76.7428 21.9958C76.7162 21.5353 76.6725 21.0773 76.6095 20.6289C75.5092 28.4594 68.7863 34.4844 60.6552 34.4844H17.5158C9.38233 34.4844 2.65937 28.4594 1.55907 20.6289C1.49606 21.0797 1.45244 21.5353 1.42578 21.9958C1.90565 30.4661 8.92428 37.1891 17.5134 37.1891H17.5158Z" fill="#CCCECF"/>
</g>
<path d="M47.4088 37.4958C47.4088 37.7309 47.2198 37.9199 46.9847 37.9199C46.7496 37.9199 46.5605 37.7309 46.5605 37.4958V4.65655C46.5605 4.42146 46.7496 4.23242 46.9847 4.23242C47.2198 4.23242 47.4088 4.42146 47.4088 4.65655V37.4958Z" fill="#B7B9BB"/>
<path d="M56.3756 37.4958C56.3756 37.7309 56.1866 37.9199 55.9515 37.9199C55.7164 37.9199 55.5273 37.7309 55.5273 37.4958V4.65655C55.5273 4.42146 55.7164 4.23242 55.9515 4.23242C56.1866 4.23242 56.3756 4.42146 56.3756 4.65655V37.4958Z" fill="#B7B9BB"/>
<path d="M57.2835 9.19947C57.2835 9.40063 57.1211 9.56301 56.92 9.56301H46.0139C45.8128 9.56301 45.6504 9.40063 45.6504 9.19947C45.6504 8.99832 45.8128 8.83594 46.0139 8.83594H56.92C57.1211 8.83594 57.2835 8.99832 57.2835 9.19947Z" fill="#B7B9BB"/>
<path d="M57.2835 15.137C57.2835 15.3381 57.1211 15.5005 56.92 15.5005H46.0139C45.8128 15.5005 45.6504 15.3381 45.6504 15.137C45.6504 14.9358 45.8128 14.7734 46.0139 14.7734H56.92C57.1211 14.7734 57.2835 14.9358 57.2835 15.137Z" fill="#B7B9BB"/>
<path d="M57.2835 21.0745C57.2835 21.2756 57.1211 21.438 56.92 21.438H46.0139C45.8128 21.438 45.6504 21.2756 45.6504 21.0745C45.6504 20.8733 45.8128 20.7109 46.0139 20.7109H56.92C57.1211 20.7109 57.2835 20.8733 57.2835 21.0745Z" fill="#B7B9BB"/>
<path d="M57.2835 27.012C57.2835 27.2131 57.1211 27.3755 56.92 27.3755H46.0139C45.8128 27.3755 45.6504 27.2131 45.6504 27.012C45.6504 26.8108 45.8128 26.6484 46.0139 26.6484H56.92C57.1211 26.6484 57.2835 26.8108 57.2835 27.012Z" fill="#B7B9BB"/>
<path d="M57.2835 32.9514C57.2835 33.1526 57.1211 33.315 56.92 33.315H46.0139C45.8128 33.315 45.6504 33.1526 45.6504 32.9514C45.6504 32.7503 45.8128 32.5879 46.0139 32.5879H56.92C57.1211 32.5879 57.2835 32.7503 57.2835 32.9514Z" fill="#B7B9BB"/>
<path d="M40.371 26.5312H20.6699V30.2781H40.371V26.5312Z" fill="url(#paint10_linear_33080_262941)"/>
<path d="M24.3519 27.8356H25.1202C25.5178 27.8356 25.7947 28.1097 25.7947 28.5087C25.7947 28.9092 25.5121 29.1847 25.1102 29.1847H24.67V29.8848H24.3519V27.8356ZM24.67 28.104V28.9177H25.035C25.3119 28.9177 25.4695 28.7686 25.4695 28.5102C25.4695 28.2517 25.3119 28.104 25.0364 28.104H24.67ZM28.0881 29.8848H27.797V28.3767H27.7871L27.1694 29.8691H26.9336L26.3145 28.3767H26.3045V29.8848H26.0149V27.8356H26.3827L27.0458 29.4531H27.0572L27.7189 27.8356H28.0881V29.8848ZM28.3168 29.3139H28.6307C28.6534 29.517 28.8508 29.6505 29.1206 29.6505C29.379 29.6505 29.5651 29.517 29.5651 29.3338C29.5651 29.1747 29.4529 29.0796 29.1873 29.0143L28.9218 28.9504C28.5455 28.8595 28.3708 28.6834 28.3708 28.398C28.3708 28.0444 28.6789 27.8015 29.1163 27.8015C29.5494 27.8015 29.8462 28.0444 29.8562 28.398H29.5466C29.5281 28.1935 29.3591 28.0699 29.1121 28.0699C28.865 28.0699 28.696 28.1949 28.696 28.3767C28.696 28.5215 28.8039 28.6067 29.068 28.672L29.2938 28.7274C29.7142 28.8268 29.8888 28.9958 29.8888 29.2954C29.8888 29.6789 29.5835 29.9188 29.0979 29.9188C28.6434 29.9188 28.3367 29.6845 28.3168 29.3139Z" fill="white"/>
<defs>
<linearGradient id="paint0_linear_33080_262941" x1="-23.0056" y1="36.6587" x2="2.99073" y2="87.8244" gradientUnits="userSpaceOnUse">
<stop stop-color="#1D9A48"/>
<stop offset="1" stop-color="#1F7637"/>
</linearGradient>
<linearGradient id="paint1_linear_33080_262941" x1="13.1058" y1="36.6587" x2="39.1021" y2="87.8244" gradientUnits="userSpaceOnUse">
<stop stop-color="#1D9A48"/>
<stop offset="1" stop-color="#1F7637"/>
</linearGradient>
<linearGradient id="paint2_linear_33080_262941" x1="57.1962" y1="3.12109" x2="55.8204" y2="-0.810836" gradientUnits="userSpaceOnUse">
<stop offset="0.15" stop-color="#263238"/>
<stop offset="0.860394" stop-color="#101014"/>
<stop offset="1" stop-color="#1C1B20"/>
</linearGradient>
<linearGradient id="paint3_linear_33080_262941" x1="72.2315" y1="40.2763" x2="71.895" y2="35.3663" gradientUnits="userSpaceOnUse">
<stop offset="0.15" stop-color="#263238"/>
<stop offset="0.860394" stop-color="#101014"/>
<stop offset="1" stop-color="#1C1B20"/>
</linearGradient>
<linearGradient id="paint4_linear_33080_262941" x1="-9.88085" y1="18.4826" x2="21.8678" y2="26.4804" gradientUnits="userSpaceOnUse">
<stop stop-color="#1D9A48"/>
<stop offset="1" stop-color="#1F7637"/>
</linearGradient>
<linearGradient id="paint5_linear_33080_262941" x1="64.6445" y1="18.4826" x2="96.3932" y2="26.4804" gradientUnits="userSpaceOnUse">
<stop stop-color="#1D9A48"/>
<stop offset="1" stop-color="#1F7637"/>
</linearGradient>
<linearGradient id="paint6_linear_33080_262941" x1="39.1004" y1="39.0471" x2="39.1004" y2="2.44885" gradientUnits="userSpaceOnUse">
<stop offset="0.23" stop-color="#CCCECF"/>
<stop offset="1" stop-color="white"/>
</linearGradient>
<linearGradient id="paint7_linear_33080_262941" x1="39.0998" y1="42.092" x2="39.0998" y2="5.49377" gradientUnits="userSpaceOnUse">
<stop offset="0.23" stop-color="#CCCECF"/>
<stop offset="1" stop-color="white"/>
</linearGradient>
<linearGradient id="paint8_linear_33080_262941" x1="150.517" y1="106.339" x2="-9.8424" y2="-250.424" gradientUnits="userSpaceOnUse">
<stop offset="0.15" stop-color="#263238"/>
<stop offset="0.860394" stop-color="#101014"/>
<stop offset="1" stop-color="#1C1B20"/>
</linearGradient>
<linearGradient id="paint9_linear_33080_262941" x1="-75.9254" y1="107.667" x2="84.4342" y2="-249.095" gradientUnits="userSpaceOnUse">
<stop offset="0.15" stop-color="#263238"/>
<stop offset="0.860394" stop-color="#101014"/>
<stop offset="1" stop-color="#1C1B20"/>
</linearGradient>
<linearGradient id="paint10_linear_33080_262941" x1="-40.0387" y1="27.0624" x2="-23.2759" y2="82.9818" gradientUnits="userSpaceOnUse">
<stop stop-color="#1D9A48"/>
<stop offset="1" stop-color="#1F7637"/>
</linearGradient>
<clipPath id="clip0_33080_262941">
<rect x="1.41406" y="5.11719" width="75.3728" height="32.2334" rx="16.1167" fill="white"/>
</clipPath>
</defs>
</svg>
