<svg width="52" height="42" viewBox="0 0 52 42" fill="none" xmlns="http://www.w3.org/2000/svg">
<rect x="5.5" y="0.5" width="41" height="41" rx="20.5" fill="#F1FCF3"/>
<rect x="5.5" y="0.5" width="41" height="41" rx="20.5" stroke="#F1FCF3"/>
<path d="M26 29.5C27.81 29.5 29.545 29.321 31.153 28.993C33.163 28.583 34.167 28.379 35.083 27.201C36 26.022 36 24.669 36 21.963V20.037C36 17.331 36 15.977 35.083 14.799C34.167 13.621 33.163 13.416 31.153 13.007C29.4565 12.667 27.7303 12.4972 26 12.5C24.19 12.5 22.455 12.679 20.847 13.007C18.837 13.417 17.833 13.621 16.917 14.799C16 15.978 16 17.331 16 20.037V21.963C16 24.669 16 26.023 16.917 27.201C17.833 28.379 18.837 28.584 20.847 28.993C22.455 29.321 24.19 29.5 26 29.5Z" stroke="#292D32" stroke-width="1.2" stroke-linecap="round" stroke-linejoin="round"/>
<path d="M29.962 21.3128C29.814 21.9188 29.024 22.3528 27.445 23.2238C25.727 24.1708 24.868 24.6438 24.173 24.4608C23.9414 24.401 23.725 24.293 23.538 24.1438C23 23.7088 23 22.8058 23 20.9998C23 19.1938 23 18.2908 23.538 17.8558C23.72 17.7088 23.938 17.5998 24.173 17.5388C24.868 17.3558 25.727 17.8288 27.445 18.7758C29.025 19.6458 29.814 20.0808 29.962 20.6868C30.012 20.8928 30.012 21.1068 29.962 21.3128Z" stroke="#292D32" stroke-width="1.2" stroke-linecap="round" stroke-linejoin="round"/>
</svg>
