<svg width="52" height="42" viewBox="0 0 52 42" fill="none" xmlns="http://www.w3.org/2000/svg">
<rect x="5.5" y="0.5" width="41" height="41" rx="20.5" fill="#F1FCF3"/>
<rect x="5.5" y="0.5" width="41" height="41" rx="20.5" stroke="#F1FCF3"/>
<path d="M20.999 19V26M24.999 22V26M24.999 22C24.999 21.606 25.0766 21.2159 25.2274 20.8519C25.3782 20.488 25.5992 20.1573 25.8777 19.8787C26.1563 19.6001 26.487 19.3791 26.851 19.2284C27.215 19.0776 27.6051 19 27.999 19C28.393 19 28.7831 19.0776 29.1471 19.2284C29.5111 19.3791 29.8418 19.6001 30.1204 19.8787C30.3989 20.1573 30.6199 20.488 30.7707 20.8519C30.9214 21.2159 30.999 21.606 30.999 22V26M24.999 22V19M21.007 16H20.998" stroke="#292D32" stroke-width="1.2" stroke-linecap="round" stroke-linejoin="round"/>
<path d="M16.5 21C16.5 16.522 16.5 14.282 17.891 12.891C19.282 11.5 21.521 11.5 26 11.5C30.478 11.5 32.718 11.5 34.109 12.891C35.5 14.282 35.5 16.521 35.5 21C35.5 25.478 35.5 27.718 34.109 29.109C32.718 30.5 30.479 30.5 26 30.5C21.522 30.5 19.282 30.5 17.891 29.109C16.5 27.718 16.5 25.479 16.5 21Z" stroke="#292D32" stroke-width="1.2" stroke-linecap="round" stroke-linejoin="round"/>
</svg>
