<svg width="52" height="42" viewBox="0 0 52 42" fill="none" xmlns="http://www.w3.org/2000/svg">
<rect x="5.5" y="0.5" width="41" height="41" rx="20.5" fill="#F1FCF3"/>
<rect x="5.5" y="0.5" width="41" height="41" rx="20.5" stroke="#F1FCF3"/>
<path d="M16.5 21C16.5 16.522 16.5 14.282 17.891 12.891C19.282 11.5 21.521 11.5 26.001 11.5C30.479 11.5 32.718 11.5 34.109 12.891C35.5 14.282 35.5 16.521 35.5 21C35.5 25.478 35.5 27.718 34.109 29.109C32.718 30.5 30.479 30.5 26 30.5C21.522 30.5 19.283 30.5 17.891 29.109C16.501 27.717 16.5 25.479 16.5 21Z" stroke="#292D32" stroke-width="1.2" stroke-linecap="round" stroke-linejoin="round"/>
<path d="M21 26L25.194 21.807M25.194 21.807L21 16H23.777L26.807 20.194L31 16M25.194 21.807L28.222 26H31L26.807 20.193" stroke="#292D32" stroke-width="1.2" stroke-linecap="round" stroke-linejoin="round"/>
</svg>
