<svg width="52" height="52" viewBox="0 0 52 52" fill="none" xmlns="http://www.w3.org/2000/svg">
<rect x="0.5" y="0.5" width="51" height="51" rx="25.5" fill="#1A762C"/>
<rect x="0.5" y="0.5" width="51" height="51" rx="25.5" stroke="#1A762C"/>
<path d="M30.5 16.4297C33.5 16.4297 35.5 18.4297 35.5 21.4297V27.4297C35.5 30.4297 33.5 32.4297 30.5 32.4297H26.5L22.0498 35.3896C21.3898 35.8395 20.5 35.3595 20.5 34.5596V32.4297C17.5 32.4297 15.5 30.4297 15.5 27.4297V21.4297C15.5 18.4297 17.5 16.4297 20.5 16.4297H30.5ZM25.5 27.0996C25.08 27.0996 24.75 27.4396 24.75 27.8496C24.75 28.2596 25.08 28.5996 25.5 28.5996C25.92 28.5996 26.25 28.2596 26.25 27.8496C26.25 27.4396 25.92 27.0996 25.5 27.0996ZM25.5 20.1201C24.1701 20.1201 23.0901 21.1995 23.0898 22.5293C23.0898 22.9392 23.4299 23.2792 23.8398 23.2793C24.2498 23.2793 24.5898 22.9393 24.5898 22.5293C24.5901 22.0295 25.0001 21.6201 25.5 21.6201C25.9999 21.6201 26.4099 22.0295 26.4102 22.5293C26.4102 22.7893 26.2899 22.96 25.9199 23.21C25.5998 23.4301 24.75 24.0004 24.75 25.1602V25.3701C24.7502 25.7799 25.0901 26.1201 25.5 26.1201C25.9099 26.1201 26.2498 25.7799 26.25 25.3701V25.1602C26.25 24.8802 26.3698 24.7092 26.7598 24.4492C27.0698 24.2392 27.9102 23.6692 27.9102 22.5293C27.9099 21.1995 26.8299 20.1201 25.5 20.1201Z" fill="#DFF9E6"/>
<path d="M30.5 16.4297C33.5 16.4297 35.5 18.4297 35.5 21.4297V27.4297C35.5 30.4297 33.5 32.4297 30.5 32.4297H26.5L22.0498 35.3896C21.3898 35.8395 20.5 35.3595 20.5 34.5596V32.4297C17.5 32.4297 15.5 30.4297 15.5 27.4297V21.4297C15.5 18.4297 17.5 16.4297 20.5 16.4297H30.5ZM25.5 27.0996C25.08 27.0996 24.75 27.4396 24.75 27.8496C24.75 28.2596 25.08 28.5996 25.5 28.5996C25.92 28.5996 26.25 28.2596 26.25 27.8496C26.25 27.4396 25.92 27.0996 25.5 27.0996ZM25.5 20.1201C24.1701 20.1201 23.0901 21.1995 23.0898 22.5293C23.0898 22.9392 23.4299 23.2792 23.8398 23.2793C24.2498 23.2793 24.5898 22.9393 24.5898 22.5293C24.5901 22.0295 25.0001 21.6201 25.5 21.6201C25.9999 21.6201 26.4099 22.0295 26.4102 22.5293C26.4102 22.7893 26.2899 22.96 25.9199 23.21C25.5998 23.4301 24.75 24.0004 24.75 25.1602V25.3701C24.7502 25.7799 25.0901 26.1201 25.5 26.1201C25.9099 26.1201 26.2498 25.7799 26.25 25.3701V25.1602C26.25 24.8802 26.3698 24.7092 26.7598 24.4492C27.0698 24.2392 27.9102 23.6692 27.9102 22.5293C27.9099 21.1995 26.8299 20.1201 25.5 20.1201Z" stroke="#061920"/>
</svg>
