<svg width="20" height="20" viewBox="0 0 20 20" fill="none" xmlns="http://www.w3.org/2000/svg">
<path d="M17.89 15.8327V4.16602C17.89 2.49935 17.0566 1.66602 15.39 1.66602H12.0566C10.39 1.66602 9.55664 2.49935 9.55664 4.16602V15.8327C9.55664 17.4993 10.39 18.3327 12.0566 18.3327H15.39C17.0566 18.3327 17.89 17.4993 17.89 15.8327Z" stroke="#292D32" stroke-width="1.5" stroke-linecap="round"/>
<path d="M9.55664 5H13.7233" stroke="#292D32" stroke-width="1.5" stroke-linecap="round"/>
<path d="M9.55664 15H12.89" stroke="#292D32" stroke-width="1.5" stroke-linecap="round"/>
<path d="M9.55664 11.627L13.7233 11.6686" stroke="#292D32" stroke-width="1.5" stroke-linecap="round"/>
<path d="M9.55664 8.33398H12.0566" stroke="#292D32" stroke-width="1.5" stroke-linecap="round"/>
<path d="M4.57604 1.66602C3.21771 1.66602 2.10938 2.77435 2.10938 4.12435V14.9244C2.10938 15.2994 2.26771 15.866 2.45938 16.191L3.14271 17.3244C3.92604 18.6327 5.21771 18.6327 6.00104 17.3244L6.68438 16.191C6.87604 15.866 7.03437 15.2994 7.03437 14.9244V4.12435C7.03437 2.77435 5.92604 1.66602 4.57604 1.66602Z" stroke="#292D32" stroke-width="1.5" stroke-linecap="round"/>
<path d="M7.03437 5.83398H2.10938" stroke="#292D32" stroke-width="1.5" stroke-linecap="round"/>
</svg>
