<svg width="20" height="20" viewBox="0 0 20 20" fill="none" xmlns="http://www.w3.org/2000/svg">
<path d="M6.25065 4.16602H13.7507C14.2673 4.16602 14.7257 4.18268 15.134 4.24102C17.3257 4.48268 17.9173 5.51602 17.9173 8.33268V11.666C17.9173 14.4827 17.3257 15.516 15.134 15.7577C14.7257 15.816 14.2673 15.8327 13.7507 15.8327H6.25065C5.73398 15.8327 5.27565 15.816 4.86732 15.7577C2.67565 15.516 2.08398 14.4827 2.08398 11.666V8.33268C2.08398 5.51602 2.67565 4.48268 4.86732 4.24102C5.27565 4.18268 5.73398 4.16602 6.25065 4.16602Z" stroke="#292D32" stroke-width="1.5" stroke-linecap="round" stroke-linejoin="round"/>
<path d="M3.75 1.66602H16.25" stroke="#292D32" stroke-width="1.5" stroke-linecap="round" stroke-linejoin="round"/>
<path d="M4.16602 18.334H16.666" stroke="#292D32" stroke-width="1.5" stroke-linecap="round" stroke-linejoin="round"/>
</svg>
