<svg width="20" height="20" viewBox="0 0 20 20" fill="none" xmlns="http://www.w3.org/2000/svg">
<path d="M10.0007 15.4173C12.9922 15.4173 15.4173 12.9922 15.4173 10.0007C15.4173 7.00911 12.9922 4.58398 10.0007 4.58398C7.00911 4.58398 4.58398 7.00911 4.58398 10.0007C4.58398 12.9922 7.00911 15.4173 10.0007 15.4173Z" stroke="#292D32" stroke-width="1.5" stroke-linecap="round" stroke-linejoin="round"/>
<path d="M15.9493 15.9493L15.841 15.841M15.841 4.15768L15.9493 4.04935L15.841 4.15768ZM4.04935 15.9493L4.15768 15.841L4.04935 15.9493ZM9.99935 1.73268V1.66602V1.73268ZM9.99935 18.3327V18.266V18.3327ZM1.73268 9.99935H1.66602H1.73268ZM18.3327 9.99935H18.266H18.3327ZM4.15768 4.15768L4.04935 4.04935L4.15768 4.15768Z" stroke="#292D32" stroke-width="2" stroke-linecap="round" stroke-linejoin="round"/>
</svg>
