<svg width="20" height="20" viewBox="0 0 20 20" fill="none" xmlns="http://www.w3.org/2000/svg">
<path d="M16.9271 13.5066H15.0415C14.4987 13.5066 14.0042 13.7937 13.73 14.2476C12.9836 15.4701 11.7685 15.9628 10.1773 15.9628C8.66401 15.9628 7.28405 15.2793 6.57462 13.9123C6.50793 13.7845 6.44681 13.653 6.39124 13.5196C6.10043 12.8157 5.86519 11.997 5.86148 11.2302C5.85963 11.0079 5.85037 10.793 5.90224 10.5763C5.92632 10.4781 5.93743 10.3577 5.96521 10.2614C5.96706 10.2577 5.96892 10.2503 5.97262 10.241C4.11106 10.3503 2.32174 10.5356 0.630595 10.7893C1.08441 15.9887 4.89459 19.7952 10.2903 19.7952C13.567 19.7952 16.7493 18.3356 18.2478 15.646C18.7887 14.6754 18.0681 13.5066 16.9271 13.5066ZM10.0292 0.388672C4.04808 0.388672 0.589844 4.68785 0.589844 10.2911C0.589844 10.3151 0.589844 10.3392 0.589844 10.3633C3.38681 9.83168 6.51164 9.53532 9.84392 9.53532C13.1318 9.53532 16.2306 9.82428 19.0035 10.3411C19.0443 10.204 19.0554 10.0503 19.0554 9.85577C19.0554 4.25812 15.9324 0.388672 10.0292 0.388672ZM12.1408 8.15721H7.88975C6.73392 8.15721 6.01893 6.96433 6.58017 5.99372C7.22663 4.88235 8.39913 4.0766 9.9884 4.0766C11.7611 4.0766 12.9336 4.89161 13.5152 6.11968C13.9671 7.07361 13.2318 8.15721 12.1408 8.15721Z" fill="white"/>
</svg>
